<?xml version="1.0" encoding="utf-8"?>
<!-- Generator: Adobe Illustrator 22.0.1, SVG Export Plug-In . SVG Version: 6.00 Build 0)  -->
<svg version="1.1" id="Layer_1" xmlns="http://www.w3.org/2000/svg" xmlns:xlink="http://www.w3.org/1999/xlink" x="0px" y="0px"
	 viewBox="0 0 24 24" style="enable-background:new 0 0 24 24;" xml:space="preserve">
<style type="text/css">
	.st0{fill:#3A9190;}
</style>
<path class="st0" d="M23.1,7.4c-0.3-0.7-0.7-1.5-1.1-2.1l-0.2,1.5l-0.1,1.1L20.5,8l-2.1,0.3c0.7,1.1,1,2.4,1,3.8
	c0,2-0.8,3.9-2.2,5.3l-0.2,0.2l0.4,2.8l2.8,0.4l0.2-0.2c1.1-1.1,2-2.4,2.6-3.9c0.6-1.5,0.9-3,0.9-4.6S23.7,8.9,23.1,7.4z M16.2,21.6
	L16,20.5l-0.3-2.1c-1.1,0.7-2.4,1-3.8,1c-2,0-3.9-0.8-5.3-2.2l-0.2-0.2l-2.8,0.4l-0.4,2.8l0.2,0.2c1.1,1.1,2.4,2,3.9,2.6
	c1.5,0.6,3,0.9,4.6,0.9s3.1-0.3,4.6-0.9c0.7-0.3,1.5-0.7,2.1-1.1l-1.5-0.2L16.2,21.6z M5.5,15.8c-0.7-1.1-1-2.4-1-3.8
	c0-2,0.8-3.9,2.2-5.3l0.2-0.2L6.6,3.6L3.8,3.3L3.5,3.5c-1.1,1.1-2,2.4-2.6,3.9C0.3,8.9,0,10.4,0,12s0.3,3.1,0.9,4.6
	c0.3,0.7,0.7,1.5,1.1,2.1l0.2-1.5l0.1-1.1L3.5,16L5.5,15.8z M7.8,2.4L8,3.5l0.3,2.1c1.1-0.7,2.4-1,3.8-1c2,0,3.9,0.8,5.3,2.2
	l0.2,0.2l2.8-0.4l0.4-2.8l-0.2-0.2c-1.1-1.1-2.4-2-3.9-2.6C15.1,0.3,13.6,0,12,0S8.9,0.3,7.4,0.9C6.7,1.2,6,1.6,5.3,2.1l1.5,0.2
	L7.8,2.4z M12,5.9c-3.4,0-6.1,2.7-6.1,6.1s2.7,6.1,6.1,6.1s6.1-2.7,6.1-6.1S15.4,5.9,12,5.9z M9.3,8.5h5.4v1.4H9.3V8.5z M14.3,15.5
	H9.7v-1.4h4.7V15.5z M15.8,12.7H8.3v-1.4h7.5V12.7z"/>
</svg>
